<mxfile host="app.diagrams.net" modified="2023-04-06T18:07:34.409Z" agent="Mozilla/5.0 (Macintosh; Intel Mac OS X 10_15_7) AppleWebKit/605.1.15 (KHTML, like Gecko) Version/16.2 Safari/605.1.15" etag="YUtvN1Sz_pLAezpJ94qJ" version="21.1.4" type="github">
  <diagram name="Page-1" id="DVja-FhIzsriN4k7RwrQ">
    <mxGraphModel dx="968" dy="680" grid="1" gridSize="10" guides="1" tooltips="1" connect="1" arrows="1" fold="1" page="1" pageScale="1" pageWidth="827" pageHeight="1169" math="0" shadow="0">
      <root>
        <mxCell id="0" />
        <mxCell id="1" parent="0" />
        <mxCell id="6e4DabMuTUjJFmLgCKRS-1" value="Careplan" style="swimlane;fontStyle=1;align=center;verticalAlign=top;childLayout=stackLayout;horizontal=1;startSize=26;horizontalStack=0;resizeParent=1;resizeParentMax=0;resizeLast=0;collapsible=1;marginBottom=0;whiteSpace=wrap;html=1;" vertex="1" parent="1">
          <mxGeometry x="120" y="130" width="160" height="86" as="geometry" />
        </mxCell>
        <mxCell id="6e4DabMuTUjJFmLgCKRS-2" value="participants&amp;nbsp;" style="text;strokeColor=none;fillColor=none;align=left;verticalAlign=top;spacingLeft=4;spacingRight=4;overflow=hidden;rotatable=0;points=[[0,0.5],[1,0.5]];portConstraint=eastwest;whiteSpace=wrap;html=1;" vertex="1" parent="6e4DabMuTUjJFmLgCKRS-1">
          <mxGeometry y="26" width="160" height="26" as="geometry" />
        </mxCell>
        <mxCell id="6e4DabMuTUjJFmLgCKRS-3" value="" style="line;strokeWidth=1;fillColor=none;align=left;verticalAlign=middle;spacingTop=-1;spacingLeft=3;spacingRight=3;rotatable=0;labelPosition=right;points=[];portConstraint=eastwest;strokeColor=inherit;" vertex="1" parent="6e4DabMuTUjJFmLgCKRS-1">
          <mxGeometry y="52" width="160" height="8" as="geometry" />
        </mxCell>
        <mxCell id="6e4DabMuTUjJFmLgCKRS-4" value="activities&lt;br&gt;" style="text;strokeColor=none;fillColor=none;align=left;verticalAlign=top;spacingLeft=4;spacingRight=4;overflow=hidden;rotatable=0;points=[[0,0.5],[1,0.5]];portConstraint=eastwest;whiteSpace=wrap;html=1;" vertex="1" parent="6e4DabMuTUjJFmLgCKRS-1">
          <mxGeometry y="60" width="160" height="26" as="geometry" />
        </mxCell>
        <mxCell id="6e4DabMuTUjJFmLgCKRS-5" value="Participant" style="swimlane;fontStyle=1;align=center;verticalAlign=top;childLayout=stackLayout;horizontal=1;startSize=26;horizontalStack=0;resizeParent=1;resizeParentMax=0;resizeLast=0;collapsible=1;marginBottom=0;whiteSpace=wrap;html=1;" vertex="1" parent="1">
          <mxGeometry x="430" y="60" width="160" height="104" as="geometry" />
        </mxCell>
        <mxCell id="6e4DabMuTUjJFmLgCKRS-6" value="member&lt;br&gt;" style="text;strokeColor=none;fillColor=none;align=left;verticalAlign=top;spacingLeft=4;spacingRight=4;overflow=hidden;rotatable=0;points=[[0,0.5],[1,0.5]];portConstraint=eastwest;whiteSpace=wrap;html=1;" vertex="1" parent="6e4DabMuTUjJFmLgCKRS-5">
          <mxGeometry y="26" width="160" height="26" as="geometry" />
        </mxCell>
        <mxCell id="6e4DabMuTUjJFmLgCKRS-10" value="role" style="text;strokeColor=none;fillColor=none;align=left;verticalAlign=top;spacingLeft=4;spacingRight=4;overflow=hidden;rotatable=0;points=[[0,0.5],[1,0.5]];portConstraint=eastwest;whiteSpace=wrap;html=1;" vertex="1" parent="6e4DabMuTUjJFmLgCKRS-5">
          <mxGeometry y="52" width="160" height="26" as="geometry" />
        </mxCell>
        <mxCell id="6e4DabMuTUjJFmLgCKRS-11" value="careTeam" style="text;strokeColor=none;fillColor=none;align=left;verticalAlign=top;spacingLeft=4;spacingRight=4;overflow=hidden;rotatable=0;points=[[0,0.5],[1,0.5]];portConstraint=eastwest;whiteSpace=wrap;html=1;" vertex="1" parent="6e4DabMuTUjJFmLgCKRS-5">
          <mxGeometry y="78" width="160" height="26" as="geometry" />
        </mxCell>
        <mxCell id="6e4DabMuTUjJFmLgCKRS-12" value="Relation" style="endArrow=open;html=1;endSize=12;startArrow=diamondThin;startSize=14;startFill=0;edgeStyle=orthogonalEdgeStyle;rounded=0;entryX=0.006;entryY=0.154;entryDx=0;entryDy=0;entryPerimeter=0;" edge="1" parent="1" source="6e4DabMuTUjJFmLgCKRS-2" target="6e4DabMuTUjJFmLgCKRS-5">
          <mxGeometry relative="1" as="geometry">
            <mxPoint x="330" y="350" as="sourcePoint" />
            <mxPoint x="490" y="350" as="targetPoint" />
          </mxGeometry>
        </mxCell>
        <mxCell id="6e4DabMuTUjJFmLgCKRS-13" value="0..*" style="edgeLabel;resizable=0;html=1;align=left;verticalAlign=top;" connectable="0" vertex="1" parent="6e4DabMuTUjJFmLgCKRS-12">
          <mxGeometry x="-1" relative="1" as="geometry" />
        </mxCell>
        <mxCell id="6e4DabMuTUjJFmLgCKRS-14" value="1" style="edgeLabel;resizable=0;html=1;align=right;verticalAlign=top;" connectable="0" vertex="1" parent="6e4DabMuTUjJFmLgCKRS-12">
          <mxGeometry x="1" relative="1" as="geometry" />
        </mxCell>
        <mxCell id="6e4DabMuTUjJFmLgCKRS-15" value="Activity" style="swimlane;fontStyle=1;align=center;verticalAlign=top;childLayout=stackLayout;horizontal=1;startSize=26;horizontalStack=0;resizeParent=1;resizeParentMax=0;resizeLast=0;collapsible=1;marginBottom=0;whiteSpace=wrap;html=1;" vertex="1" parent="1">
          <mxGeometry x="430" y="250" width="160" height="60" as="geometry" />
        </mxCell>
        <mxCell id="6e4DabMuTUjJFmLgCKRS-16" value="participants&amp;nbsp;" style="text;strokeColor=none;fillColor=none;align=left;verticalAlign=top;spacingLeft=4;spacingRight=4;overflow=hidden;rotatable=0;points=[[0,0.5],[1,0.5]];portConstraint=eastwest;whiteSpace=wrap;html=1;" vertex="1" parent="6e4DabMuTUjJFmLgCKRS-15">
          <mxGeometry y="26" width="160" height="26" as="geometry" />
        </mxCell>
        <mxCell id="6e4DabMuTUjJFmLgCKRS-17" value="" style="line;strokeWidth=1;fillColor=none;align=left;verticalAlign=middle;spacingTop=-1;spacingLeft=3;spacingRight=3;rotatable=0;labelPosition=right;points=[];portConstraint=eastwest;strokeColor=inherit;" vertex="1" parent="6e4DabMuTUjJFmLgCKRS-15">
          <mxGeometry y="52" width="160" height="8" as="geometry" />
        </mxCell>
        <mxCell id="6e4DabMuTUjJFmLgCKRS-19" value="Relation" style="endArrow=open;html=1;endSize=12;startArrow=diamondThin;startSize=14;startFill=0;edgeStyle=orthogonalEdgeStyle;rounded=0;exitX=1;exitY=0.5;exitDx=0;exitDy=0;entryX=0;entryY=0.25;entryDx=0;entryDy=0;" edge="1" parent="1" source="6e4DabMuTUjJFmLgCKRS-4" target="6e4DabMuTUjJFmLgCKRS-15">
          <mxGeometry relative="1" as="geometry">
            <mxPoint x="330" y="350" as="sourcePoint" />
            <mxPoint x="490" y="350" as="targetPoint" />
          </mxGeometry>
        </mxCell>
        <mxCell id="6e4DabMuTUjJFmLgCKRS-20" value="0..n" style="edgeLabel;resizable=0;html=1;align=left;verticalAlign=top;" connectable="0" vertex="1" parent="6e4DabMuTUjJFmLgCKRS-19">
          <mxGeometry x="-1" relative="1" as="geometry" />
        </mxCell>
        <mxCell id="6e4DabMuTUjJFmLgCKRS-21" value="1" style="edgeLabel;resizable=0;html=1;align=right;verticalAlign=top;" connectable="0" vertex="1" parent="6e4DabMuTUjJFmLgCKRS-19">
          <mxGeometry x="1" relative="1" as="geometry" />
        </mxCell>
        <mxCell id="6e4DabMuTUjJFmLgCKRS-22" value="Relation" style="endArrow=open;html=1;endSize=12;startArrow=diamondThin;startSize=14;startFill=0;edgeStyle=orthogonalEdgeStyle;rounded=0;exitX=1;exitY=0.5;exitDx=0;exitDy=0;entryX=1.019;entryY=0.106;entryDx=0;entryDy=0;entryPerimeter=0;" edge="1" parent="1" source="6e4DabMuTUjJFmLgCKRS-16" target="6e4DabMuTUjJFmLgCKRS-5">
          <mxGeometry relative="1" as="geometry">
            <mxPoint x="330" y="350" as="sourcePoint" />
            <mxPoint x="490" y="350" as="targetPoint" />
            <Array as="points">
              <mxPoint x="630" y="289" />
              <mxPoint x="630" y="71" />
            </Array>
          </mxGeometry>
        </mxCell>
        <mxCell id="6e4DabMuTUjJFmLgCKRS-23" value="0..n" style="edgeLabel;resizable=0;html=1;align=left;verticalAlign=top;" connectable="0" vertex="1" parent="6e4DabMuTUjJFmLgCKRS-22">
          <mxGeometry x="-1" relative="1" as="geometry" />
        </mxCell>
        <mxCell id="6e4DabMuTUjJFmLgCKRS-24" value="1" style="edgeLabel;resizable=0;html=1;align=right;verticalAlign=top;" connectable="0" vertex="1" parent="6e4DabMuTUjJFmLgCKRS-22">
          <mxGeometry x="1" relative="1" as="geometry" />
        </mxCell>
      </root>
    </mxGraphModel>
  </diagram>
</mxfile>
